# xmcd CD database file
#
# Track frame offsets:
#	150
#	22101
#	42075
#	59196
#	76073
#	95196
#	113895
#	129437
#	149551
#	163507
#	180768
#	197021
#
# Disc length: 2875 seconds
#
# Revision: 0
# Processed by: cddbd v1.5.2PL0 Copyright (c) Steve Scherf et al.
# Submitted via: CDex 1.51
#
DISCID=a40b390c
DTITLE=jamie j. champa - Ain't So Bad
DYEAR=2003
DGENRE=Country
TTITLE0=Ain't So Bad
TTITLE1=Walk
TTITLE2=They're Goin' Together
TTITLE3=In Their Eyes
TTITLE4=She Looked Good
TTITLE5=She's Gonna Wait
TTITLE6=If I Got You
TTITLE7=Diamonds
TTITLE8=I'm Gonna Marry Her
TTITLE9=Mama Doesn't Cry (The Pot Roast Song)
TTITLE10=Mama
TTITLE11=I Can Dream...Can't I?
EXTD=YEAR: 2003
EXTT0=
EXTT1=
EXTT2=
EXTT3=
EXTT4=
EXTT5=
EXTT6=
EXTT7=
EXTT8=
EXTT9=
EXTT10=
EXTT11=
PLAYORDER=
